 <svg
                        xmlns="http://www.w3.org/2000/svg"
                        width="57"
                        height="49"
                        fill="none"
                        viewBox="0 0 57 49"
                    >
                        <path
                            fill="#D1D5DB"
                            d="M56.875 25c0 2.25-1.75 4-3.875 4H14.625L27.75 42.25c1.625 1.5 1.625 4.125 0 5.625A3.878 3.878 0 0125 49c-1.125 0-2.125-.375-2.875-1.125l-20-20C.5 26.375.5 23.75 2.125 22.25l20-20c1.5-1.625 4.125-1.625 5.625 0 1.625 1.5 1.625 4.125 0 5.625L14.625 21H53c2.125 0 3.875 1.875 3.875 4z"
                        ></path>
                    </svg>