 <svg
                                            xmlns="http://www.w3.org/2000/svg"
                                            width="10"
                                            height="9"
                                            fill="none"
                                            viewBox="0 0 10 9"
                                        >
                                            <path
                                                fill="#1F2A37"
                                                d="M8.809 7.566c.33.305.33.838 0 1.143a.788.788 0 01-.559.229.804.804 0 01-.584-.229L5 6.043 2.309 8.709a.788.788 0 01-.559.229.804.804 0 01-.584-.229.783.783 0 010-1.143l2.666-2.691-2.666-2.666a.783.783 0 010-1.143.783.783 0 011.143 0L5 3.732l2.666-2.666a.783.783 0 011.143 0c.33.305.33.838 0 1.143L6.143 4.9l2.666 2.666z"
                                            ></path>
                                        </svg>