<svg
      xmlns="http://www.w3.org/2000/svg"
      width="64"
      height="64"
      fill="none"
      viewBox="0 0 64 64"
    >
      <rect width="64" height="64" fill="#FDE8E8" rx="32"></rect>
      <path
        fill="#F05252"
        d="M26.438 17.125c.312-.688 1-1.125 1.75-1.125h7.562c.75 0 1.438.438 1.75 1.125L38 18h6c1.063 0 2 .938 2 2 0 1.125-.938 2-2 2H20c-1.125 0-2-.875-2-2 0-1.063.875-2 2-2h6l.438-.875zm16.187 28.063c-.063 1.624-1.375 2.812-3 2.812H24.312c-1.625 0-2.937-1.188-3-2.813L19.938 24H44l-1.375 21.188z"
      ></path>
    </svg>