<svg
      xmlns="http://www.w3.org/2000/svg"
      width="10"
      height="17"
      fill="none"
      viewBox="0 0 10 17"
    >
      <path
        fill="#4B5563"
        d="M5.75 2.813c.844.093 1.625.25 2.219.374.406.126.656.5.562.907a.754.754 0 01-.906.562c-.969-.218-2.375-.5-3.563-.375-.593.032-1.062.157-1.406.375-.312.219-.562.5-.625.969-.094.344-.031.594.063.75.062.188.25.375.531.531.594.375 1.469.625 2.531.875l.094.032c.969.25 2.063.53 2.906 1.03.438.282.813.626 1.063 1.126.281.5.312 1.094.219 1.719-.22 1.124-1.032 1.843-2.032 2.218-.5.188-1.062.313-1.656.344v1.5a.74.74 0 01-.75.75.722.722 0 01-.75-.75v-1.531c-.125-.031-.219-.031-.313-.031l-.03-.032c-.75-.094-2.126-.406-2.97-.781-.375-.188-.562-.625-.375-1a.71.71 0 01.97-.375c.655.281 1.905.594 2.593.688 1.125.156 2.063.062 2.75-.188.656-.25 1-.625 1.063-1.094.093-.375.03-.594-.063-.75-.063-.187-.25-.375-.531-.531C6.75 9.75 5.875 9.5 4.812 9.25l-.093-.031c-.969-.25-2.063-.531-2.907-1.031C1.375 7.905 1 7.561.75 7.062.469 6.532.437 5.97.531 5.345c.188-.907.656-1.532 1.313-1.938.625-.406 1.375-.562 2.093-.625.094 0 .188-.031.313-.031v-1.5A.74.74 0 015 .5a.76.76 0 01.75.75v1.563z"
      ></path>
    </svg>