 <svg
      xmlns="http://www.w3.org/2000/svg"
      width="14"
      height="14"
      fill="none"
      viewBox="0 0 14 14"
    >
      <path
        fill="#1F2A37"
        d="M1.973 8.602L9.69.882a1.64 1.64 0 012.311 0l.99.991c.076.076.152.178.203.254a1.62 1.62 0 01-.203 2.057l-7.719 7.718c-.025.026-.076.051-.101.102a2.696 2.696 0 01-.838.457l-3.072.889a.518.518 0 01-.584-.153.576.576 0 01-.178-.584l.914-3.072c.102-.355.305-.686.559-.94zm.609 1.294l-.584 1.981 1.98-.584a1.08 1.08 0 00.432-.254l5.815-5.814-1.6-1.575-5.79 5.815c-.024 0-.024.025-.05.05-.101.102-.152.23-.203.381z"
      ></path>
    </svg>