<svg
      xmlns="http://www.w3.org/2000/svg"
      width="12"
      height="14"
      fill="none"
      viewBox="0 0 12 14"
    >
      <path
        fill="#1F2A37"
        d="M11.078 2.906c.33 0 .61.28.61.61 0 .355-.28.609-.61.609h-.305l-.609 8.252a1.613 1.613 0 01-1.625 1.498H3.436a1.613 1.613 0 01-1.625-1.498L1.2 4.125h-.28a.587.587 0 01-.609-.61c0-.33.254-.609.61-.609h1.752l.94-1.396c.253-.381.71-.635 1.193-.635h2.361c.482 0 .94.254 1.193.635l.94 1.396h1.777zm-6.271-.812a.214.214 0 00-.178.101l-.483.711h3.682l-.482-.71a.214.214 0 00-.178-.102H4.807zm4.748 2.031H2.42l.61 8.176a.41.41 0 00.406.355h5.103a.41.41 0 00.406-.355l.61-8.176z"
      ></path>
    </svg>